PathFileType	4	(X/Y/Z)	TVC_4_Cal_03_0_static_RCNL2025.trc
DataRate	CameraRate	NumFrames	NumMarkers	Units	OrigDataRate	OrigDataStartFrame	OrigNumFrames
100	100	10	27	mm	100	115	228
Frame#	Time	R_Shoulder			L_Shoulder			C7			J_Notch			R_Elbow			L_Elbow			R_Wrist			L_Wrist			R_Asis			L_Asis			R_Psis			L_Psis			Sacral			Thoracic			Sternum			R_Thigh_Lateral			R_Knee_Lateral			R_Shank_Lateral			R_Ankle_Lateral			R_Heel			R_Toe			L_Thigh_Lateral			L_Knee_Lateral			L_Shank_Lateral			L_Ankle_Lateral			L_Heel			L_Toe		
		X1	Y1	Z1	X2	Y2	Z2	X3	Y3	Z3	X4	Y4	Z4	X5	Y5	Z5	X6	Y6	Z6	X7	Y7	Z7	X8	Y8	Z8	X9	Y9	Z9	X10	Y10	Z10	X11	Y11	Z11	X12	Y12	Z12	X13	Y13	Z13	X14	Y14	Z14	X15	Y15	Z15	X16	Y16	Z16	X17	Y17	Z17	X18	Y18	Z18	X19	Y19	Z19	X20	Y20	Z20	X21	Y21	Z21	X22	Y22	Z22	X23	Y23	Z23	X24	Y24	Z24	X25	Y25	Z25	X26	Y26	Z26	X27	Y27	Z27
115	1.14000000	-246.459198	1345.066772	-59.936073	-207.333145	1343.206055	-421.065552	-282.646973	1391.295654	-232.558762	-134.701431	1270.027344	-238.845047	-236.019562	1134.104736	146.525482	-195.105408	1107.588379	-619.586975	-158.930550	956.622986	271.388252	-82.655125	931.030884	-682.526093	-234.089539	882.925781	-43.517010	-244.882126	865.908081	-398.211426	-378.621246	920.257263	-166.577789	-378.473419	915.354370	-258.092072	-378.547333	917.805817	-212.334930	-360.621033	1148.720459	-234.821579	-103.039787	1076.906738	-227.230148	-259.769501	541.550842	-6.486888	-282.344879	423.834106	-47.645767	-302.040161	281.847412	21.902174	-311.912628	60.753819	-60.648808	-356.654175	52.031944	-109.132980	-179.154633	44.215916	-72.829720	-245.452454	517.935852	-419.696014	-262.091339	429.579285	-379.716522	-262.232544	316.446777	-429.352448	-293.952667	60.836914	-363.518890	-341.405396	49.703129	-319.372406	-158.044540	41.929226	-343.977997
116	1.15000000	-246.444229	1345.079102	-59.916985	-207.263107	1343.215820	-420.995605	-282.665741	1391.360107	-232.539093	-134.510208	1270.053955	-238.866943	-235.884933	1134.072144	146.444382	-194.973907	1107.664551	-619.623474	-158.719406	956.548645	271.305252	-82.601070	931.137909	-682.599670	-234.135605	882.898865	-43.597603	-244.738876	865.900146	-398.167908	-378.667297	920.341858	-166.662704	-378.391388	915.339844	-258.128601	-378.529343	917.840851	-212.395653	-360.597321	1148.773560	-234.928146	-102.912964	1076.974121	-227.158783	-259.740265	541.570251	-6.479106	-282.318298	423.761230	-47.399109	-302.023621	281.848663	21.909323	-311.861298	60.703072	-60.688957	-356.648102	52.064671	-109.138123	-179.185455	44.220318	-72.778465	-245.460556	517.937988	-419.731232	-262.084778	429.583588	-379.669952	-262.270081	316.504608	-429.273438	-293.962952	60.884682	-363.508179	-341.340240	49.702721	-319.401947	-158.099670	42.030689	-343.957458
117	1.16000000	-246.401306	1345.105225	-59.873447	-207.169296	1343.303833	-420.955933	-282.615234	1391.355835	-232.479172	-134.538574	1270.052856	-238.807236	-235.832794	1134.017944	146.415237	-194.866547	1107.804199	-619.651611	-158.570213	956.482269	271.212936	-82.450123	931.289062	-682.725983	-234.190155	882.983154	-43.642696	-244.700043	865.899170	-398.211273	-378.670349	920.318298	-166.665817	-378.478516	915.494263	-258.222717	-378.574432	917.906281	-212.444267	-360.535217	1148.765503	-234.882278	-102.896103	1076.978638	-227.148239	-259.802704	541.539307	-6.470012	-282.325378	423.752991	-47.401695	-302.020996	281.911377	21.867575	-311.874390	60.773502	-60.654152	-356.648315	52.066833	-109.138611	-179.186203	44.238178	-72.766716	-245.396042	517.875610	-419.714294	-262.060455	429.550140	-379.650421	-262.273743	316.475494	-429.283966	-293.966461	60.796452	-363.510376	-341.421875	49.769699	-319.351624	-158.110016	42.011620	-344.007355
118	1.17000000	-246.381744	1345.097412	-59.881767	-207.154694	1343.346558	-420.960175	-282.556915	1391.372681	-232.481522	-134.353760	1270.118652	-238.821182	-235.757736	1134.067017	146.470581	-194.788498	1107.969604	-619.695129	-158.366119	956.388885	271.139748	-82.353943	931.410400	-682.789734	-234.147171	882.950195	-43.674103	-244.647232	865.932556	-398.295013	-378.610016	920.345642	-166.689743	-378.532501	915.364746	-258.231873	-378.571259	917.855194	-212.460808	-360.531494	1148.781494	-234.872467	-102.722099	1077.104492	-227.150558	-259.923370	541.498901	-6.495863	-282.307495	423.797089	-47.458019	-302.047455	281.851898	21.921095	-311.879852	60.782585	-60.660728	-356.692871	52.078201	-109.186554	-179.155197	44.233330	-72.834312	-245.370132	517.883850	-419.757629	-262.040161	429.575867	-379.641174	-262.147552	316.427002	-429.206696	-293.902954	60.783680	-363.528900	-341.437836	49.774300	-319.335297	-158.104965	42.001778	-344.010193
119	1.18000000	-246.334152	1345.096680	-59.885990	-207.170670	1343.412598	-420.918549	-282.548279	1391.348633	-232.455215	-134.297684	1270.179443	-238.850357	-235.566696	1133.958984	146.383804	-194.735397	1108.121704	-619.738464	-158.191132	956.353760	271.034172	-82.243687	931.584534	-682.936432	-234.158951	882.870544	-43.587543	-244.622253	865.975769	-398.308319	-378.612152	920.380737	-166.691956	-378.494019	915.307129	-258.264221	-378.553085	917.843933	-212.478088	-360.522003	1148.767212	-234.969437	-102.605606	1077.204102	-227.159256	-259.991669	541.571167	-6.546601	-282.332886	423.837036	-47.582020	-302.068634	281.939362	21.833475	-311.928162	60.623268	-60.713036	-356.704132	52.046204	-109.185806	-179.225479	44.227863	-72.841194	-245.341248	517.900574	-419.768219	-261.997803	429.558716	-379.691223	-262.179108	316.471802	-429.554962	-294.027924	60.831905	-363.526611	-341.426025	49.773380	-319.419983	-158.148209	42.014595	-344.050293
120	1.19000000	-246.242554	1345.046875	-59.837952	-207.109802	1343.526489	-420.908051	-282.463531	1391.372192	-232.445312	-134.190094	1270.199829	-238.791931	-235.544479	1133.932861	146.446945	-194.655746	1108.213867	-619.773254	-157.978157	956.285034	270.988052	-82.147621	931.760162	-683.033112	-234.098587	883.005310	-43.677864	-244.628113	865.971313	-398.284607	-378.590118	920.395447	-166.746033	-378.469666	915.378174	-258.321991	-378.529892	917.886810	-212.534012	-360.447266	1148.805786	-234.941071	-102.585854	1077.261841	-227.169067	-259.958557	541.539368	-6.583739	-282.366730	423.835846	-47.591675	-302.132965	281.930908	21.817612	-311.907745	60.624184	-60.696537	-356.699463	52.060497	-109.185249	-179.193542	44.236477	-72.878250	-245.342270	517.906250	-419.780975	-261.994843	429.569977	-379.700592	-262.198364	316.441406	-429.274536	-294.059937	60.885586	-363.521698	-341.469879	49.809734	-319.414062	-158.077057	42.000809	-344.037109
121	1.20000000	-246.203598	1345.023193	-59.833637	-207.100449	1343.673462	-420.874176	-282.459045	1391.493042	-232.382385	-134.151840	1270.278076	-238.738297	-235.425140	1133.964111	146.414795	-194.549271	1108.377319	-619.803345	-157.777664	956.171417	270.896439	-81.984539	931.988861	-683.183716	-234.085556	883.013428	-43.701958	-244.685135	866.096863	-398.251251	-378.666534	920.437134	-166.794006	-378.487244	915.411743	-258.313263	-378.576889	917.924438	-212.553635	-360.442993	1148.826050	-234.932770	-102.451599	1077.327026	-227.132629	-259.958313	541.628906	-6.614790	-282.361633	423.821167	-47.641182	-302.094727	281.913696	21.782461	-311.901703	60.638222	-60.694118	-356.654877	52.051613	-109.238167	-179.177872	44.224094	-72.872917	-245.266953	517.883545	-419.822021	-261.986664	429.553528	-379.699188	-262.283508	316.381683	-429.230957	-294.023254	60.749897	-363.534332	-341.477051	49.826805	-319.412720	-158.109451	42.028000	-344.113831
122	1.21000000	-246.157883	1345.027710	-59.765636	-207.072189	1343.717529	-420.787506	-282.418060	1391.413208	-232.360748	-134.133316	1270.320801	-238.791306	-235.329391	1133.917847	146.415726	-194.486084	1108.591797	-619.930847	-157.642136	956.169586	270.910698	-81.915653	932.143280	-683.289307	-234.062363	882.957458	-43.686806	-244.622742	865.918579	-398.293610	-378.611603	920.456665	-166.738861	-378.388550	915.531372	-258.310059	-378.500076	917.994019	-212.524460	-360.444489	1148.842163	-234.934097	-102.263908	1077.476685	-227.082367	-260.048645	541.507141	-6.589293	-282.349579	423.839111	-47.651974	-302.165894	281.961243	21.771429	-311.880188	60.746742	-60.668224	-356.643738	52.081490	-109.246857	-179.197983	44.217144	-72.944168	-245.325119	517.920776	-419.786133	-261.965698	429.558075	-379.732635	-262.134888	316.361359	-429.228577	-293.918274	60.775383	-363.528534	-341.407257	49.837250	-319.449463	-158.076675	42.006260	-344.048401
123	1.22000000	-246.103455	1345.028076	-59.722507	-207.076157	1343.851562	-420.674408	-282.419830	1391.428467	-232.309814	-134.056808	1270.422241	-238.651993	-235.270798	1133.930908	146.501465	-194.431442	1108.699219	-619.994263	-157.444931	956.140259	270.864098	-81.878365	932.345032	-683.411072	-234.156937	882.963379	-43.655910	-244.615463	865.904663	-398.297668	-378.557007	920.383850	-166.773117	-378.439606	915.376953	-258.362671	-378.498306	917.880402	-212.567894	-360.547272	1148.895752	-234.869247	-102.241425	1077.496460	-227.085693	-260.049194	541.513916	-6.588065	-282.371124	423.813721	-47.633244	-302.161743	281.947662	21.836353	-311.869873	60.745872	-60.672127	-356.645966	52.084206	-109.245262	-179.146942	44.201405	-72.863838	-245.297913	517.930908	-419.809814	-261.952759	429.570190	-379.730408	-262.042297	316.335114	-429.487640	-293.962555	60.587368	-363.437042	-341.408020	49.817322	-319.373108	-158.041641	41.973778	-344.022552
124	1.23000000	-246.114197	1344.985962	-59.668438	-207.044968	1343.919189	-420.612946	-282.475555	1391.572754	-232.093521	-134.014084	1270.506836	-238.608719	-235.068115	1133.877930	146.492142	-194.622467	1108.858643	-619.641296	-157.269012	956.112091	270.882301	-81.771954	932.504333	-683.521484	-234.123108	882.976562	-43.721684	-244.466797	865.945374	-398.282684	-378.552307	920.389282	-166.782623	-378.425598	915.356750	-258.389221	-378.488953	917.873016	-212.585922	-360.506897	1148.820190	-234.791061	-102.100121	1077.622070	-227.135468	-260.035187	541.536926	-6.597748	-282.377319	423.827240	-47.623089	-302.154663	281.899200	21.843430	-311.874786	60.716263	-60.678398	-356.678314	52.008236	-109.234787	-179.183823	44.197098	-72.815842	-245.378677	517.937561	-419.760559	-261.959747	429.584564	-379.721558	-262.158478	316.401123	-429.297699	-293.896088	60.728165	-363.505737	-341.342316	49.724785	-319.402344	-158.092560	41.988792	-344.023163
